:FULLY-SPECIFIED
:FORCE-ALL-JOINTS-BE-3DOF
:DEGREES
43
root 4.44019 16.4798 -22.099 6.01932 -9.28343 -5.9449
lfemur -36.7437 12.2786 -11.2748
ltibia 75.3813 0 0
lfoot 7.69897 0.694625 -0.369318
ltoes -5.94495 0 0
rfemur 6.05346 4.35695 29.668
rtibia 20.4566 0 0
rfoot -9.15625 -2.51924 0.218672
rtoes -22.4137 0 0
lowerback 5.16029 0.425778 3.42972
upperback 0.435711 0.752609 3.20016
thorax -2.39786 0.399502 1.47671
lowerneck -11.6881 -0.330705 -5.95769
upperneck 0.510574 0.12948 5.84199
head 2.31679 0.191037 2.44206
lclavicle -1.4755e-17 6.85809e-15 1.45961e-31
lhumerus -46.7703 -8.62838 94.0672
lradius 63.3411 0 0
lwrist 17.0386 0 0
lhand -16.5042 -1.02505 -3.31809
lfingers 7.12502 0 0
lthumb 9.65225 27.3865 -3.42975
rclavicle -1.4755e-17 6.85809e-15 1.45961e-31
rhumerus -37.4055 16.9659 -90.8203
rradius 78.9807 0 0
rwrist -14.9806 0 0
rhand -37.9878 1.97655 -1.95076
rfingers 7.12502 0 0
rthumb -11.0233 -27.6274 -1.89856
44
root 4.46441 16.5272 -21.7636 6.06609 -9.41944 -6.06919
lfemur -38.0376 12.2371 -11.3125
ltibia 75.5933 0 0
lfoot 7.01586 0.150675 -0.383445
ltoes -5.24552 0 0
rfemur 7.09129 4.54499 29.3648
rtibia 20.0208 0 0
rfoot -7.74577 -2.25144 0.207527
rtoes -17.5721 0 0
lowerback 5.11065 0.644107 3.59992
upperback 0.458452 1.05009 3.19953
thorax -2.33878 0.542693 1.31266
lowerneck -11.757 -0.472107 -5.72846
upperneck 0.61868 -0.0840699 5.59726
head 2.36381 0.0839176 2.33394
lclavicle -4.5348e-15 5.069e-15 -4.05426e-30
lhumerus -47.2045 -8.52554 94.0916
lradius 63.0763 0 0
lwrist 17.1846 0 0
lhand -17.4253 -1.5233 -3.2366
lfingers 7.12502 0 0
lthumb 8.773 27.0257 -3.31596
rclavicle -4.5348e-15 5.069e-15 -4.05426e-30
rhumerus -36.6567 17.1138 -90.6311
rradius 79.0534 0 0
rwrist -14.2232 0 0
rhand -36.981 2.1126 -1.99619
rfingers 7.12502 0 0
rthumb -10.0518 -27.526 -1.94391
45
root 4.49029 16.5779 -21.4189 6.1992 -9.58658 -6.0891
lfemur -39.36 11.8888 -11.5752
ltibia 75.3251 0 0
lfoot 6.409 -0.21895 -0.421714
ltoes -5.96358 0 0
rfemur 6.65639 4.61262 29.0207
rtibia 22.68 0 0
rfoot -7.68868 -2.00732 0.16647
rtoes -16.7213 0 0
lowerback 4.94606 0.828979 3.57274
upperback 0.410675 1.28629 3.29651
thorax -2.28886 0.660507 1.35184
lowerneck -11.8644 -0.597014 -5.71875
upperneck 0.780179 -0.244374 5.42849
head 2.42357 0.00370856 2.3125
lclavicle -4.9261e-15 -2.59414e-14 1.05255e-30
lhumerus -47.647 -8.22459 94.2698
lradius 62.8325 0 0
lwrist 17.1617 0 0
lhand -17.8945 -1.5088 -3.18142
lfingers 7.12502 0 0
lthumb 8.3246 27.1048 -3.24642
rclavicle -4.9261e-15 -2.59414e-14 1.05255e-30
rhumerus -36.1551 17.5209 -90.3646
rradius 79.0913 0 0
rwrist -13.5969 0 0
rhand -36.5296 2.3757 -2.03535
rfingers 7.12502 0 0
rthumb -9.61586 -27.2718 -1.98306
46
root 4.51796 16.6443 -21.0531 6.48721 -9.8463 -6.01641
lfemur -40.3907 11.4402 -12.0589
ltibia 74.4624 0 0
lfoot 5.71433 -0.419605 -0.442872
ltoes -6.48354 0 0
rfemur 6.78318 4.68883 28.5866
rtibia 24.0944 0 0
rfoot -6.9147 -1.80163 0.13925
rtoes -19.0032 0 0
lowerback 4.60732 0.987747 3.49517
upperback 0.209296 1.4721 3.33366
thorax -2.29198 0.757851 1.33625
lowerneck -12.159 -0.646834 -5.92106
upperneck 1.30031 -0.266254 5.52853
head 2.64617 -0.019502 2.45211
lclavicle 8.17269e-15 1.55052e-14 -1.94696e-32
lhumerus -48.3357 -7.7347 94.2582
lradius 62.7123 0 0
lwrist 16.6702 0 0
lhand -17.4496 -1.10975 -3.14163
lfingers 7.12502 0 0
lthumb 8.75235 27.5041 -3.21361
rclavicle 8.17269e-15 1.55052e-14 -1.94696e-32
rhumerus -36.1022 17.921 -90.2657
rradius 79.1714 0 0
rwrist -13.2328 0 0
rhand -36.6906 2.93595 -2.12064
rfingers 7.12502 0 0
rthumb -9.77077 -26.6977 -2.06672
